<svg width="90" height="90" viewBox="0 0 90 90" fill="none" xmlns="http://www.w3.org/2000/svg">
<rect width="90" height="90" rx="12" fill="#203760"/>
<path d="M25.7148 24.1074C25.7148 22.2603 26.5276 20.4889 27.9743 19.1829C29.421 17.8768 31.3832 17.1431 33.4291 17.1431H56.572C58.6179 17.1431 60.5801 17.8768 62.0268 19.1829C63.4735 20.4889 64.2863 22.2603 64.2863 24.1074V71.8508C64.2863 72.0559 64.2863 72.1584 64.2641 72.2305C64.1925 72.4623 63.9648 72.6094 63.724 72.5792C63.6493 72.5698 63.5558 72.5276 63.3689 72.4432L45.268 64.2727C45.2075 64.2454 45.1772 64.2317 45.1468 64.2224C45.0515 64.1933 44.9496 64.1933 44.8543 64.2224C44.8239 64.2317 44.7936 64.2454 44.7331 64.2727L26.6323 72.4432C26.4453 72.5276 26.3519 72.5698 26.2771 72.5792C26.0363 72.6094 25.8086 72.4623 25.7371 72.2305C25.7148 72.1584 25.7148 72.0559 25.7148 71.8508V24.1074Z" fill="white"/>
</svg>
